# xmcd
#
# Track frame offsets: 
#        150
#        12090
#        25895
#        39687
#        53645
#        67990
#        80780
#        93497
#
# Disc length: 1428 seconds
#
# Revision: 1
# Processed by: cddbd v1.5.2PL0 Copyright (c) Steve Scherf et al.
# Submitted via: ExactAudioCopy v0.99pb4
#
DISCID=5e059208
DTITLE=Erroll Garner - Penthouse Serenade
DYEAR=1949
DGENRE=Jazz
TTITLE0=Indiana
TTITLE1=Love Walked In
TTITLE2=Body And Soul
TTITLE3=Penthouse Serenade
TTITLE4=Stompin' At The Savoy
TTITLE5=Stardust
TTITLE6=More Than You Know
TTITLE7=Over The Rainbow
EXTD=YEAR: 1949
EXTT0=
EXTT1=
EXTT2=
EXTT3=
EXTT4=
EXTT5=
EXTT6=
EXTT7=
PLAYORDER=
